<svg class="main-svg" xmlns="http://www.w3.org/2000/svg" xmlns:xlink="http://www.w3.org/1999/xlink" width="600" height="400" style=""><rect x="0" y="0" width="600" height="400" style="fill: rgb(255, 255, 255); fill-opacity: 1;"/><defs id="defs-2b5943"><g class="clips"><clipPath id="clip2b5943xyplot" class="plotclip"><rect width="451.79180519101783" height="311.6633858267717"/></clipPath><clipPath class="axesclip" id="clip2b5943x"><rect x="80.69113444152813" y="0" width="451.79180519101783" height="400"/></clipPath><clipPath class="axesclip" id="clip2b5943y"><rect x="0" y="41.04330708661415" width="600" height="311.6633858267717"/></clipPath><clipPath class="axesclip" id="clip2b5943xy"><rect x="80.69113444152813" y="41.04330708661415" width="451.79180519101783" height="311.6633858267717"/></clipPath></g><g class="gradients"/><g class="patterns"/></defs><g class="bglayer"/><g class="layer-below"><g class="imagelayer"/><g class="shapelayer"/></g><g class="cartesianlayer"><g class="subplot xy"><g class="layer-subplot"><g class="shapelayer"/><g class="imagelayer"/></g><g class="gridlayer"><g class="x"><path class="xgrid crisp" transform="translate(86.25113444152814,0)" d="M0,41.04330708661415v311.6633858267717" style="stroke: rgb(0, 0, 0); stroke-opacity: 0.1; stroke-width: 0.5px;"/><path class="xgrid crisp" transform="translate(158.49113444152812,0)" d="M0,41.04330708661415v311.6633858267717" style="stroke: rgb(0, 0, 0); stroke-opacity: 0.1; stroke-width: 0.5px;"/><path class="xgrid crisp" transform="translate(230.73113444152813,0)" d="M0,41.04330708661415v311.6633858267717" style="stroke: rgb(0, 0, 0); stroke-opacity: 0.1; stroke-width: 0.5px;"/><path class="xgrid crisp" transform="translate(302.97113444152814,0)" d="M0,41.04330708661415v311.6633858267717" style="stroke: rgb(0, 0, 0); stroke-opacity: 0.1; stroke-width: 0.5px;"/><path class="xgrid crisp" transform="translate(375.2111344415281,0)" d="M0,41.04330708661415v311.6633858267717" style="stroke: rgb(0, 0, 0); stroke-opacity: 0.1; stroke-width: 0.5px;"/><path class="xgrid crisp" transform="translate(447.4511344415281,0)" d="M0,41.04330708661415v311.6633858267717" style="stroke: rgb(0, 0, 0); stroke-opacity: 0.1; stroke-width: 0.5px;"/><path class="xgrid crisp" transform="translate(519.7011344415281,0)" d="M0,41.04330708661415v311.6633858267717" style="stroke: rgb(0, 0, 0); stroke-opacity: 0.1; stroke-width: 0.5px;"/></g><g class="y"><path class="ygrid crisp" transform="translate(0,296.80330708661415)" d="M80.69113444152813,0h451.79180519101783" style="stroke: rgb(0, 0, 0); stroke-opacity: 0.1; stroke-width: 0.5px;"/><path class="ygrid crisp" transform="translate(0,236.83330708661413)" d="M80.69113444152813,0h451.79180519101783" style="stroke: rgb(0, 0, 0); stroke-opacity: 0.1; stroke-width: 0.5px;"/><path class="ygrid crisp" transform="translate(0,176.85330708661417)" d="M80.69113444152813,0h451.79180519101783" style="stroke: rgb(0, 0, 0); stroke-opacity: 0.1; stroke-width: 0.5px;"/><path class="ygrid crisp" transform="translate(0,116.87330708661415)" d="M80.69113444152813,0h451.79180519101783" style="stroke: rgb(0, 0, 0); stroke-opacity: 0.1; stroke-width: 0.5px;"/><path class="ygrid crisp" transform="translate(0,56.89330708661415)" d="M80.69113444152813,0h451.79180519101783" style="stroke: rgb(0, 0, 0); stroke-opacity: 0.1; stroke-width: 0.5px;"/></g></g><g class="zerolinelayer"/><path class="xlines-below"/><path class="ylines-below"/><g class="overlines-below"/><g class="xaxislayer-below"/><g class="yaxislayer-below"/><g class="overaxes-below"/><g class="plot" transform="translate(80.69113444152813,41.04330708661415)" clip-path="url(#clip2b5943xyplot)"><g class="scatterlayer mlayer"><g class="trace scatter trace6fdd74" style="stroke-miterlimit: 2; opacity: 1;"><g class="fills"/><g class="errorbars"/><g class="lines"><path class="js-line" d="M12.79,87.45L20.01,105.5L27.23,96.46L34.46,98.12L41.68,141.73L48.91,120.37L56.13,123.46L63.35,138.25L70.58,142.5L77.8,161.69L85.03,151.24L92.25,149.53L99.48,160.47L106.7,176.54L113.92,178.59L121.15,182.06L128.37,191.59L135.6,191.49L142.82,189.26L157.27,183.97L164.49,178.36L178.94,172.86L186.16,165.22L193.39,148.46L200.61,154.22L215.06,136.3L222.28,158.19L229.51,181.69L236.73,172.5L243.96,169.58L251.18,165.02L258.4,171.65L265.63,193.71L272.85,216.43L280.08,242.49L287.3,246.88L294.52,243.17L301.75,248.89L308.97,255.71L323.42,237.18L330.64,238.94L337.87,256.51L345.09,263.46L352.32,262.89L359.54,259.75L366.76,260.93L373.99,264.25L388.44,257.74L395.66,261.38L402.89,259.12L410.11,249.82L417.33,263.92L424.56,266.22L431.78,269.37L439.01,268.69" style="vector-effect: non-scaling-stroke; fill: none; stroke: rgb(0, 154, 250); stroke-opacity: 1; stroke-width: 1px; opacity: 1;"/></g><g class="points"/><g class="text"/></g><g class="trace scatter tracea34377" style="stroke-miterlimit: 2; opacity: 1;"><g class="fills"/><g class="errorbars"/><g class="lines"><path class="js-line" d="M12.79,108.03L20.01,100.15L27.23,100.14L34.46,104.98L41.68,108.86L48.91,118.14L56.13,116.93L63.35,125.79L70.58,132.86L77.8,136.31L85.03,138.19L92.25,141.09L99.48,146.73L106.7,156.49L113.92,163.85L121.15,163.57L128.37,166.36L135.6,166.07L142.82,163.81L150.04,165.09L157.27,168.24L164.49,171.55L171.72,175.87L178.94,173.01L186.16,168.6L193.39,161.13L200.61,162.97L207.84,161.97L215.06,158.01L229.51,180.59L236.73,172.21L243.96,180.18L251.18,179.4L258.4,176.47L265.63,191.16L272.85,213.33L280.08,226.28L287.3,236.97L294.52,245.09L301.75,246.43L308.97,253.93L316.2,256.51L323.42,266.99L330.64,267.57L337.87,288.45L345.09,219.85L352.32,234.68L366.76,255.73L373.99,256.73L381.21,254.31L388.44,268.15L395.66,273.86L402.89,285.62L410.11,290.29L417.33,289.54L424.56,297.46L431.78,297.64L439.01,302.84" style="vector-effect: non-scaling-stroke; fill: none; stroke: rgb(227, 111, 71); stroke-opacity: 1; stroke-width: 1px; opacity: 1;"/></g><g class="points"/><g class="text"/></g><g class="trace scatter trace23faa1" style="stroke-miterlimit: 2; opacity: 1;"><g class="fills"/><g class="errorbars"/><g class="lines"><path class="js-line" d="M12.79,259.33L20.01,266.8L27.23,269.02L34.46,276.8L41.68,277.15L48.91,277.87L56.13,280.25L63.35,282.51L70.58,287.37L77.8,287.33L85.03,283.1L92.25,281.43L99.48,277.55L106.7,256.96L113.92,243.72L121.15,241.45L128.37,264.15L135.6,274.42L142.82,272.97L150.04,272.91L157.27,268.03L164.49,262.76L171.72,270.71L178.94,269.07L186.16,260.24L193.39,241.82L200.61,227.83L207.84,218.66L215.06,212.4L222.28,208.53L229.51,189.17L236.73,182.01L243.96,169.77L251.18,154.4L258.4,154.93L265.63,152.52L272.85,165.81L280.08,156.4L287.3,150.55L294.52,142.1L301.75,109.74L308.97,103.6L316.2,82.55L323.42,64.02L330.64,70.2L337.87,92.04L345.09,95.88L359.54,126.6L366.76,146.07L373.99,135.86L381.21,129.2L388.44,145.29L395.66,163.61L402.89,162.85L410.11,157.39L417.33,153.94L424.56,129.23L439.01,8.82" style="vector-effect: non-scaling-stroke; fill: none; stroke: rgb(62, 164, 78); stroke-opacity: 1; stroke-width: 1px; opacity: 1;"/></g><g class="points"/><g class="text"/></g><g class="trace scatter trace0c4f21" style="stroke-miterlimit: 2; opacity: 1;"><g class="fills"/><g class="errorbars"/><g class="lines"><path class="js-line" d="M12.79,232.42L20.01,220.96L27.23,224.81L34.46,226.68L41.68,238.07L48.91,242.77L56.13,239.86L63.35,244.19L70.58,250.47L77.8,252.78L85.03,250.44L92.25,248.78L99.48,252.29L106.7,262.09L113.92,265.99L121.15,262.27L128.37,262.29L135.6,260.48L142.82,256.74L150.04,250.77L157.27,248.75L164.49,249.03L171.72,243.72L178.94,231.28L186.16,216.3L193.39,200.42L200.61,191.48L207.84,186.21L215.06,169.3L222.28,174.45L229.51,188.3L236.73,169.6L243.96,167.74L251.18,163.65L258.4,148.21L265.63,149.62L272.85,160.97L280.08,168.67L287.3,172.7L294.52,160.16L301.75,157.35L316.2,152.57L323.42,132.62L330.64,124.39L337.87,138.58L345.09,177.51L352.32,209.51L359.54,196.15L366.76,184.93L373.99,181.02L381.21,169.07L388.44,161.41L395.66,168.49L402.89,155.21L410.11,132.78L417.33,131.25L424.56,126.29L439.01,82.7" style="vector-effect: non-scaling-stroke; fill: none; stroke: rgb(195, 113, 210); stroke-opacity: 1; stroke-width: 1px; opacity: 1;"/></g><g class="points"/><g class="text"/></g></g></g><g class="overplot"/><path class="xlines-above crisp" d="M79.69113444152813,353.20669291338584H532.4829396325459" style="fill: none; stroke-width: 1px; stroke: rgb(0, 0, 0); stroke-opacity: 1;"/><path class="ylines-above crisp" d="M80.19113444152813,41.04330708661415V352.70669291338584" style="fill: none; stroke-width: 1px; stroke: rgb(0, 0, 0); stroke-opacity: 1;"/><g class="overlines-above"/><g class="xaxislayer-above"><path class="xtick ticks crisp" d="M0,352.70669291338584v-5" transform="translate(86.25113444152814,0)" style="stroke: rgb(0, 0, 0); stroke-opacity: 1; stroke-width: 1px;"/><path class="xtick ticks crisp" d="M0,352.70669291338584v-5" transform="translate(158.49113444152812,0)" style="stroke: rgb(0, 0, 0); stroke-opacity: 1; stroke-width: 1px;"/><path class="xtick ticks crisp" d="M0,352.70669291338584v-5" transform="translate(230.73113444152813,0)" style="stroke: rgb(0, 0, 0); stroke-opacity: 1; stroke-width: 1px;"/><path class="xtick ticks crisp" d="M0,352.70669291338584v-5" transform="translate(302.97113444152814,0)" style="stroke: rgb(0, 0, 0); stroke-opacity: 1; stroke-width: 1px;"/><path class="xtick ticks crisp" d="M0,352.70669291338584v-5" transform="translate(375.2111344415281,0)" style="stroke: rgb(0, 0, 0); stroke-opacity: 1; stroke-width: 1px;"/><path class="xtick ticks crisp" d="M0,352.70669291338584v-5" transform="translate(447.4511344415281,0)" style="stroke: rgb(0, 0, 0); stroke-opacity: 1; stroke-width: 1px;"/><path class="xtick ticks crisp" d="M0,352.70669291338584v-5" transform="translate(519.7011344415281,0)" style="stroke: rgb(0, 0, 0); stroke-opacity: 1; stroke-width: 1px;"/><g class="xtick"><text text-anchor="middle" x="0" y="366.9066929133858" transform="translate(86.25113444152814,0)" style="font-family: sans-serif; font-size: 11px; fill: rgb(0, 0, 0); fill-opacity: 1; white-space: pre; opacity: 1;">0</text></g><g class="xtick"><text text-anchor="middle" x="0" y="366.9066929133858" style="font-family: sans-serif; font-size: 11px; fill: rgb(0, 0, 0); fill-opacity: 1; white-space: pre; opacity: 1;" transform="translate(158.49113444152812,0)">10</text></g><g class="xtick"><text text-anchor="middle" x="0" y="366.9066929133858" style="font-family: sans-serif; font-size: 11px; fill: rgb(0, 0, 0); fill-opacity: 1; white-space: pre; opacity: 1;" transform="translate(230.73113444152813,0)">20</text></g><g class="xtick"><text text-anchor="middle" x="0" y="366.9066929133858" style="font-family: sans-serif; font-size: 11px; fill: rgb(0, 0, 0); fill-opacity: 1; white-space: pre; opacity: 1;" transform="translate(302.97113444152814,0)">30</text></g><g class="xtick"><text text-anchor="middle" x="0" y="366.9066929133858" style="font-family: sans-serif; font-size: 11px; fill: rgb(0, 0, 0); fill-opacity: 1; white-space: pre; opacity: 1;" transform="translate(375.2111344415281,0)">40</text></g><g class="xtick"><text text-anchor="middle" x="0" y="366.9066929133858" style="font-family: sans-serif; font-size: 11px; fill: rgb(0, 0, 0); fill-opacity: 1; white-space: pre; opacity: 1;" transform="translate(447.4511344415281,0)">50</text></g><g class="xtick"><text text-anchor="middle" x="0" y="366.9066929133858" style="font-family: sans-serif; font-size: 11px; fill: rgb(0, 0, 0); fill-opacity: 1; white-space: pre; opacity: 1;" transform="translate(519.7011344415281,0)">60</text></g></g><g class="yaxislayer-above"><path class="ytick ticks crisp" d="M80.69113444152813,0h5" transform="translate(0,296.80330708661415)" style="stroke: rgb(0, 0, 0); stroke-opacity: 1; stroke-width: 1px;"/><path class="ytick ticks crisp" d="M80.69113444152813,0h5" transform="translate(0,236.83330708661413)" style="stroke: rgb(0, 0, 0); stroke-opacity: 1; stroke-width: 1px;"/><path class="ytick ticks crisp" d="M80.69113444152813,0h5" transform="translate(0,176.85330708661417)" style="stroke: rgb(0, 0, 0); stroke-opacity: 1; stroke-width: 1px;"/><path class="ytick ticks crisp" d="M80.69113444152813,0h5" transform="translate(0,116.87330708661415)" style="stroke: rgb(0, 0, 0); stroke-opacity: 1; stroke-width: 1px;"/><path class="ytick ticks crisp" d="M80.69113444152813,0h5" transform="translate(0,56.89330708661415)" style="stroke: rgb(0, 0, 0); stroke-opacity: 1; stroke-width: 1px;"/><g class="ytick"><text text-anchor="end" x="77.49113444152813" y="3.8499999999999996" transform="translate(0,296.80330708661415)" style="font-family: sans-serif; font-size: 11px; fill: rgb(0, 0, 0); fill-opacity: 1; white-space: pre; opacity: 1;">-2.0×10⁵</text></g><g class="ytick"><text text-anchor="end" x="77.49113444152813" y="3.8499999999999996" style="font-family: sans-serif; font-size: 11px; fill: rgb(0, 0, 0); fill-opacity: 1; white-space: pre; opacity: 1;" transform="translate(0,236.83330708661413)">0</text></g><g class="ytick"><text text-anchor="end" x="77.49113444152813" y="3.8499999999999996" style="font-family: sans-serif; font-size: 11px; fill: rgb(0, 0, 0); fill-opacity: 1; white-space: pre; opacity: 1;" transform="translate(0,176.85330708661417)">2.0×10⁵</text></g><g class="ytick"><text text-anchor="end" x="77.49113444152813" y="3.8499999999999996" style="font-family: sans-serif; font-size: 11px; fill: rgb(0, 0, 0); fill-opacity: 1; white-space: pre; opacity: 1;" transform="translate(0,116.87330708661415)">4.0×10⁵</text></g><g class="ytick"><text text-anchor="end" x="77.49113444152813" y="3.8499999999999996" style="font-family: sans-serif; font-size: 11px; fill: rgb(0, 0, 0); fill-opacity: 1; white-space: pre; opacity: 1;" transform="translate(0,56.89330708661415)">6.0×10⁵</text></g></g><g class="overaxes-above"/></g></g><g class="polarlayer"/><g class="ternarylayer"/><g class="geolayer"/><g class="funnelarealayer"/><g class="pielayer"/><g class="iciclelayer"/><g class="treemaplayer"/><g class="sunburstlayer"/><g class="glimages"/><defs id="topdefs-2b5943"><g class="clips"/><clipPath id="legend2b5943"><rect width="53" height="116" x="0" y="0"/></clipPath></defs><g class="layer-above"><g class="imagelayer"/><g class="shapelayer"/></g><g class="infolayer"><g class="legend" pointer-events="all" transform="translate(546.72,20)"><rect class="bg" shape-rendering="crispEdges" width="53" height="116" x="0" y="0" style="stroke: rgb(68, 68, 68); stroke-opacity: 1; fill: rgb(255, 255, 255); fill-opacity: 1; stroke-width: 0px;"/><g class="scrollbox" transform="" clip-path="url(#legend2b5943)"><g class="groups" transform=""><g class="traces" transform="translate(0,14.5)" style="opacity: 1;"><text class="legendtext" text-anchor="start" x="40" y="4.680000000000001" style="font-family: 'Open Sans', verdana, arial, sans-serif; font-size: 12px; fill: rgb(68, 68, 68); fill-opacity: 1; white-space: pre;">1</text><g class="layers" style="opacity: 1;"><g class="legendfill"/><g class="legendlines"><path class="js-line" d="M5,0h30" style="fill: none; stroke: rgb(0, 154, 250); stroke-opacity: 1; stroke-width: 1px;"/></g><g class="legendsymbols"><g class="legendpoints"/></g></g><rect class="legendtoggle" x="0" y="-9.5" width="47.630208015441895" height="19" style="fill: rgb(0, 0, 0); fill-opacity: 0;"/></g></g><g class="groups" transform="translate(0,10)"><g class="traces" transform="translate(0,33.5)" style="opacity: 1;"><text class="legendtext" text-anchor="start" x="40" y="4.680000000000001" style="font-family: 'Open Sans', verdana, arial, sans-serif; font-size: 12px; fill: rgb(68, 68, 68); fill-opacity: 1; white-space: pre;">2</text><g class="layers" style="opacity: 1;"><g class="legendfill"/><g class="legendlines"><path class="js-line" d="M5,0h30" style="fill: none; stroke: rgb(227, 111, 71); stroke-opacity: 1; stroke-width: 1px;"/></g><g class="legendsymbols"><g class="legendpoints"/></g></g><rect class="legendtoggle" x="0" y="-9.5" width="47.630208015441895" height="19" style="fill: rgb(0, 0, 0); fill-opacity: 0;"/></g></g><g class="groups" transform="translate(0,20)"><g class="traces" transform="translate(0,52.5)" style="opacity: 1;"><text class="legendtext" text-anchor="start" x="40" y="4.680000000000001" style="font-family: 'Open Sans', verdana, arial, sans-serif; font-size: 12px; fill: rgb(68, 68, 68); fill-opacity: 1; white-space: pre;">3</text><g class="layers" style="opacity: 1;"><g class="legendfill"/><g class="legendlines"><path class="js-line" d="M5,0h30" style="fill: none; stroke: rgb(62, 164, 78); stroke-opacity: 1; stroke-width: 1px;"/></g><g class="legendsymbols"><g class="legendpoints"/></g></g><rect class="legendtoggle" x="0" y="-9.5" width="47.630208015441895" height="19" style="fill: rgb(0, 0, 0); fill-opacity: 0;"/></g></g><g class="groups" transform="translate(0,30)"><g class="traces" transform="translate(0,71.5)" style="opacity: 1;"><text class="legendtext" text-anchor="start" x="40" y="4.680000000000001" style="font-family: 'Open Sans', verdana, arial, sans-serif; font-size: 12px; fill: rgb(68, 68, 68); fill-opacity: 1; white-space: pre;">4</text><g class="layers" style="opacity: 1;"><g class="legendfill"/><g class="legendlines"><path class="js-line" d="M5,0h30" style="fill: none; stroke: rgb(195, 113, 210); stroke-opacity: 1; stroke-width: 1px;"/></g><g class="legendsymbols"><g class="legendpoints"/></g></g><rect class="legendtoggle" x="0" y="-9.5" width="47.630208015441895" height="19" style="fill: rgb(0, 0, 0); fill-opacity: 0;"/></g></g></g><rect class="scrollbar" rx="20" ry="3" width="0" height="0" x="0" y="0" style="fill: rgb(128, 139, 164); fill-opacity: 1;"/></g><g class="g-gtitle"/><g class="g-xtitle" transform="translate(0,-11.040351131769626)"><text class="xtitle" x="306.587037037037" y="407.70669291338584" text-anchor="middle" style="font-family: sans-serif; font-size: 15px; fill: rgb(0, 0, 0); opacity: 1; font-weight: normal; white-space: pre;">year</text></g><g class="g-ytitle" transform="translate(-6.150064468383789,0)"><text class="ytitle" transform="rotate(-90,40.691134441528135,196.875)" x="40.691134441528135" y="196.875" text-anchor="middle" style="font-family: sans-serif; font-size: 15px; fill: rgb(0, 0, 0); opacity: 1; font-weight: normal; white-space: pre;">emisssions</text></g><g class="annotation" data-index="0" style="opacity: 1;"><g class="annotation-text-g" transform="rotate(0,306.5870370370371,33.500000000000014)"><g class="cursor-pointer" transform="translate(118,20)"><rect class="bg" x="0.5" y="0.5" width="377" height="26" style="stroke-width: 1px; stroke: rgb(0, 0, 0); stroke-opacity: 0; fill: rgb(0, 0, 0); fill-opacity: 0;"/><text class="annotation-text" text-anchor="middle" x="188.7578125" y="20.3330078125" style="font-family: sans-serif; font-size: 20px; fill: rgb(0, 0, 0); fill-opacity: 1; white-space: pre;">De-trended Observed Regional Emissions</text></g></g></g></g></svg>