<svg class="main-svg" xmlns="http://www.w3.org/2000/svg" xmlns:xlink="http://www.w3.org/1999/xlink" width="600" height="400" style=""><rect x="0" y="0" width="600" height="400" style="fill: rgb(255, 255, 255); fill-opacity: 1;"/><defs id="defs-cc562a"><g class="clips"><clipPath id="clipcc562axyplot" class="plotclip"><rect width="451.79180519101783" height="311.6633858267717"/></clipPath><clipPath class="axesclip" id="clipcc562ax"><rect x="80.69113444152813" y="0" width="451.79180519101783" height="400"/></clipPath><clipPath class="axesclip" id="clipcc562ay"><rect x="0" y="41.04330708661415" width="600" height="311.6633858267717"/></clipPath><clipPath class="axesclip" id="clipcc562axy"><rect x="80.69113444152813" y="41.04330708661415" width="451.79180519101783" height="311.6633858267717"/></clipPath></g><g class="gradients"/><g class="patterns"/></defs><g class="bglayer"/><g class="layer-below"><g class="imagelayer"/><g class="shapelayer"/></g><g class="cartesianlayer"><g class="subplot xy"><g class="layer-subplot"><g class="shapelayer"/><g class="imagelayer"/></g><g class="gridlayer"><g class="x"><path class="xgrid crisp" transform="translate(86.25113444152814,0)" d="M0,41.04330708661415v311.6633858267717" style="stroke: rgb(0, 0, 0); stroke-opacity: 0.1; stroke-width: 0.5px;"/><path class="xgrid crisp" transform="translate(158.49113444152812,0)" d="M0,41.04330708661415v311.6633858267717" style="stroke: rgb(0, 0, 0); stroke-opacity: 0.1; stroke-width: 0.5px;"/><path class="xgrid crisp" transform="translate(230.73113444152813,0)" d="M0,41.04330708661415v311.6633858267717" style="stroke: rgb(0, 0, 0); stroke-opacity: 0.1; stroke-width: 0.5px;"/><path class="xgrid crisp" transform="translate(302.97113444152814,0)" d="M0,41.04330708661415v311.6633858267717" style="stroke: rgb(0, 0, 0); stroke-opacity: 0.1; stroke-width: 0.5px;"/><path class="xgrid crisp" transform="translate(375.2111344415281,0)" d="M0,41.04330708661415v311.6633858267717" style="stroke: rgb(0, 0, 0); stroke-opacity: 0.1; stroke-width: 0.5px;"/><path class="xgrid crisp" transform="translate(447.4511344415281,0)" d="M0,41.04330708661415v311.6633858267717" style="stroke: rgb(0, 0, 0); stroke-opacity: 0.1; stroke-width: 0.5px;"/><path class="xgrid crisp" transform="translate(519.7011344415281,0)" d="M0,41.04330708661415v311.6633858267717" style="stroke: rgb(0, 0, 0); stroke-opacity: 0.1; stroke-width: 0.5px;"/></g><g class="y"><path class="ygrid crisp" transform="translate(0,298.29330708661416)" d="M80.69113444152813,0h451.79180519101783" style="stroke: rgb(0, 0, 0); stroke-opacity: 0.1; stroke-width: 0.5px;"/><path class="ygrid crisp" transform="translate(0,236.17330708661416)" d="M80.69113444152813,0h451.79180519101783" style="stroke: rgb(0, 0, 0); stroke-opacity: 0.1; stroke-width: 0.5px;"/><path class="ygrid crisp" transform="translate(0,174.05330708661415)" d="M80.69113444152813,0h451.79180519101783" style="stroke: rgb(0, 0, 0); stroke-opacity: 0.1; stroke-width: 0.5px;"/><path class="ygrid crisp" transform="translate(0,111.93330708661415)" d="M80.69113444152813,0h451.79180519101783" style="stroke: rgb(0, 0, 0); stroke-opacity: 0.1; stroke-width: 0.5px;"/><path class="ygrid crisp" transform="translate(0,49.813307086614145)" d="M80.69113444152813,0h451.79180519101783" style="stroke: rgb(0, 0, 0); stroke-opacity: 0.1; stroke-width: 0.5px;"/></g></g><g class="zerolinelayer"/><path class="xlines-below"/><path class="ylines-below"/><g class="overlines-below"/><g class="xaxislayer-below"/><g class="yaxislayer-below"/><g class="overaxes-below"/><g class="plot" transform="translate(80.69113444152813,41.04330708661415)" clip-path="url(#clipcc562axyplot)"><g class="scatterlayer mlayer"><g class="trace scatter traceab07a0" style="stroke-miterlimit: 2; opacity: 1;"><g class="fills"/><g class="errorbars"/><g class="lines"><path class="js-line" d="M12.79,239.51L20.01,242.98L27.23,235.25L34.46,231.99L41.68,246.13L48.91,233.38L56.13,230.79L63.35,233.07L70.58,231.02L77.8,235.18L85.03,227.08L92.25,222.64L99.48,223.46L106.7,226.43L113.92,223.63L121.15,221.43L128.37,221.78L135.6,218.16L142.82,213.69L157.27,204.49L164.49,198.69L178.94,189.56L186.16,183.01L193.39,172.71L200.61,171.76L215.06,157.76L222.28,163.57L229.51,170.08L236.73,163.08L251.18,153.67L258.4,153.3L272.85,165.7L280.08,173.46L287.3,172.27L294.52,167.75L308.97,167.06L316.2,160.53L323.42,153.61L330.64,151.49L337.87,155.95L345.09,156.04L352.32,153.04L359.54,149L366.76,146.77L373.99,145.47L388.44,137.48L395.66,136.38L402.89,132.87L410.11,126.47L417.33,129.79L424.56,128.24L431.78,127.08L439.01,124.35" style="vector-effect: non-scaling-stroke; fill: none; stroke: rgb(0, 154, 250); stroke-opacity: 1; stroke-width: 1px; opacity: 1;"/></g><g class="points"/><g class="text"/></g><g class="trace scatter trace481b65" style="stroke-miterlimit: 2; opacity: 1;"><g class="fills"/><g class="errorbars"/><g class="lines"><path class="js-line" d="M12.79,292.76L20.01,285.49L27.23,281.51L41.68,277.24L48.91,277.19L56.13,272.81L63.35,272.64L70.58,271.75L77.8,269.39L92.25,263.87L99.48,262.5L106.7,262.86L113.92,262.25L121.15,258.51L128.37,256.06L150.04,244.89L157.27,242.7L171.72,238.95L178.94,234.36L186.16,229.14L193.39,222.69L200.61,220.12L207.84,216.4L215.06,211.48L222.28,212.85L229.51,214.36L236.73,207.69L243.96,207.82L251.18,204.35L258.4,200.03L265.63,203.02L272.85,209.14L280.08,211.47L287.3,212.89L294.52,213.28L301.75,210.88L308.97,211.06L316.2,209.22L323.42,210.69L330.64,208.08L337.87,213.92L345.09,182.7L352.32,186.08L366.76,189.35L373.99,187.08L381.21,183.42L388.44,186.52L395.66,186.28L402.89,188.58L410.11,187.96L417.33,185.13L424.56,185.92L431.78,183.52L439.01,183.23" style="vector-effect: non-scaling-stroke; fill: none; stroke: rgb(227, 111, 71); stroke-opacity: 1; stroke-width: 1px; opacity: 1;"/></g><g class="points"/><g class="text"/></g><g class="trace scatter trace496801" style="stroke-miterlimit: 2; opacity: 1;"><g class="fills"/><g class="errorbars"/><g class="lines"><path class="js-line" d="M12.79,302.84L20.01,301.93L27.23,298.87L34.46,298.14L41.68,294.36L56.13,287.87L63.35,284.97L70.58,283.16L77.8,279.35L85.03,273.84L92.25,269.41L99.48,264.09L106.7,251.88L113.92,242.73L121.15,238.17L128.37,243.97L135.6,244.65L150.04,236.95L157.27,231.44L164.49,225.79L171.72,225.64L178.94,221.55L186.16,214.51L193.39,203.51L200.61,194.39L207.84,187.28L215.06,181.41L222.28,176.55L229.51,165.31L236.73,159.15L243.96,150.9L251.18,141.4L258.4,138.5L265.63,134.41L272.85,136.85L280.08,129.92L287.3,124.49L294.52,118L301.75,101.64L308.97,96.17L316.2,84.55L323.42,74L330.64,73.71L337.87,79.94L345.09,78.74L359.54,85.96L366.76,91.32L373.99,84.4L381.21,78.98L388.44,83.02L395.66,88.01L402.89,85.12L410.11,80.3L417.33,76.35L424.56,63.62L439.01,8.82" style="vector-effect: non-scaling-stroke; fill: none; stroke: rgb(62, 164, 78); stroke-opacity: 1; stroke-width: 1px; opacity: 1;"/></g><g class="points"/><g class="text"/></g><g class="trace scatter trace7fdb77" style="stroke-miterlimit: 2; opacity: 1;"><g class="fills"/><g class="errorbars"/><g class="lines"><path class="js-line" d="M12.79,295.44L20.01,286.68L27.23,284.3L34.46,281.12L41.68,281.91L48.91,279.96L56.13,274.89L63.35,272.84L70.58,271.62L77.8,268.79L85.03,264.05L92.25,259.63L99.48,257.37L106.7,257.75L113.92,255.71L121.15,250.54L128.37,246.95L142.82,237.52L150.04,231.53L157.27,227.2L164.49,223.85L171.72,218.21L178.94,209.64L193.39,190.11L200.61,183.07L207.84,177.58L215.06,167.3L222.28,166.19L229.51,168.7L236.73,157.75L243.96,153.81L251.18,148.97L258.4,139.46L265.63,136.96L272.85,138.6L280.08,138.75L287.3,137.41L294.52,129.24L301.75,125.11L316.2,117.3L323.42,106.17L330.64,99.91L337.87,102.97L345.09,116.3L352.32,126.8L366.76,111.16L373.99,106.86L381.21,99.25L388.44,93.45L395.66,93.77L402.89,85.69L410.11,73.85L417.33,70.7L424.56,66.14L431.78,54.6L439.01,43.17" style="vector-effect: non-scaling-stroke; fill: none; stroke: rgb(195, 113, 210); stroke-opacity: 1; stroke-width: 1px; opacity: 1;"/></g><g class="points"/><g class="text"/></g></g></g><g class="overplot"/><path class="xlines-above crisp" d="M79.69113444152813,353.20669291338584H532.4829396325459" style="fill: none; stroke-width: 1px; stroke: rgb(0, 0, 0); stroke-opacity: 1;"/><path class="ylines-above crisp" d="M80.19113444152813,41.04330708661415V352.70669291338584" style="fill: none; stroke-width: 1px; stroke: rgb(0, 0, 0); stroke-opacity: 1;"/><g class="overlines-above"/><g class="xaxislayer-above"><path class="xtick ticks crisp" d="M0,352.70669291338584v-5" transform="translate(86.25113444152814,0)" style="stroke: rgb(0, 0, 0); stroke-opacity: 1; stroke-width: 1px;"/><path class="xtick ticks crisp" d="M0,352.70669291338584v-5" transform="translate(158.49113444152812,0)" style="stroke: rgb(0, 0, 0); stroke-opacity: 1; stroke-width: 1px;"/><path class="xtick ticks crisp" d="M0,352.70669291338584v-5" transform="translate(230.73113444152813,0)" style="stroke: rgb(0, 0, 0); stroke-opacity: 1; stroke-width: 1px;"/><path class="xtick ticks crisp" d="M0,352.70669291338584v-5" transform="translate(302.97113444152814,0)" style="stroke: rgb(0, 0, 0); stroke-opacity: 1; stroke-width: 1px;"/><path class="xtick ticks crisp" d="M0,352.70669291338584v-5" transform="translate(375.2111344415281,0)" style="stroke: rgb(0, 0, 0); stroke-opacity: 1; stroke-width: 1px;"/><path class="xtick ticks crisp" d="M0,352.70669291338584v-5" transform="translate(447.4511344415281,0)" style="stroke: rgb(0, 0, 0); stroke-opacity: 1; stroke-width: 1px;"/><path class="xtick ticks crisp" d="M0,352.70669291338584v-5" transform="translate(519.7011344415281,0)" style="stroke: rgb(0, 0, 0); stroke-opacity: 1; stroke-width: 1px;"/><g class="xtick"><text text-anchor="middle" x="0" y="366.9066929133858" transform="translate(86.25113444152814,0)" style="font-family: sans-serif; font-size: 11px; fill: rgb(0, 0, 0); fill-opacity: 1; white-space: pre; opacity: 1;">0</text></g><g class="xtick"><text text-anchor="middle" x="0" y="366.9066929133858" style="font-family: sans-serif; font-size: 11px; fill: rgb(0, 0, 0); fill-opacity: 1; white-space: pre; opacity: 1;" transform="translate(158.49113444152812,0)">10</text></g><g class="xtick"><text text-anchor="middle" x="0" y="366.9066929133858" style="font-family: sans-serif; font-size: 11px; fill: rgb(0, 0, 0); fill-opacity: 1; white-space: pre; opacity: 1;" transform="translate(230.73113444152813,0)">20</text></g><g class="xtick"><text text-anchor="middle" x="0" y="366.9066929133858" style="font-family: sans-serif; font-size: 11px; fill: rgb(0, 0, 0); fill-opacity: 1; white-space: pre; opacity: 1;" transform="translate(302.97113444152814,0)">30</text></g><g class="xtick"><text text-anchor="middle" x="0" y="366.9066929133858" style="font-family: sans-serif; font-size: 11px; fill: rgb(0, 0, 0); fill-opacity: 1; white-space: pre; opacity: 1;" transform="translate(375.2111344415281,0)">40</text></g><g class="xtick"><text text-anchor="middle" x="0" y="366.9066929133858" style="font-family: sans-serif; font-size: 11px; fill: rgb(0, 0, 0); fill-opacity: 1; white-space: pre; opacity: 1;" transform="translate(447.4511344415281,0)">50</text></g><g class="xtick"><text text-anchor="middle" x="0" y="366.9066929133858" style="font-family: sans-serif; font-size: 11px; fill: rgb(0, 0, 0); fill-opacity: 1; white-space: pre; opacity: 1;" transform="translate(519.7011344415281,0)">60</text></g></g><g class="yaxislayer-above"><path class="ytick ticks crisp" d="M80.69113444152813,0h5" transform="translate(0,298.29330708661416)" style="stroke: rgb(0, 0, 0); stroke-opacity: 1; stroke-width: 1px;"/><path class="ytick ticks crisp" d="M80.69113444152813,0h5" transform="translate(0,236.17330708661416)" style="stroke: rgb(0, 0, 0); stroke-opacity: 1; stroke-width: 1px;"/><path class="ytick ticks crisp" d="M80.69113444152813,0h5" transform="translate(0,174.05330708661415)" style="stroke: rgb(0, 0, 0); stroke-opacity: 1; stroke-width: 1px;"/><path class="ytick ticks crisp" d="M80.69113444152813,0h5" transform="translate(0,111.93330708661415)" style="stroke: rgb(0, 0, 0); stroke-opacity: 1; stroke-width: 1px;"/><path class="ytick ticks crisp" d="M80.69113444152813,0h5" transform="translate(0,49.813307086614145)" style="stroke: rgb(0, 0, 0); stroke-opacity: 1; stroke-width: 1px;"/><g class="ytick"><text text-anchor="end" x="77.49113444152813" y="3.8499999999999996" transform="translate(0,298.29330708661416)" style="font-family: sans-serif; font-size: 11px; fill: rgb(0, 0, 0); fill-opacity: 1; white-space: pre; opacity: 1;">5.00×10⁵</text></g><g class="ytick"><text text-anchor="end" x="77.49113444152813" y="3.8499999999999996" style="font-family: sans-serif; font-size: 11px; fill: rgb(0, 0, 0); fill-opacity: 1; white-space: pre; opacity: 1;" transform="translate(0,236.17330708661416)">1.00×10⁶</text></g><g class="ytick"><text text-anchor="end" x="77.49113444152813" y="3.8499999999999996" style="font-family: sans-serif; font-size: 11px; fill: rgb(0, 0, 0); fill-opacity: 1; white-space: pre; opacity: 1;" transform="translate(0,174.05330708661415)">1.50×10⁶</text></g><g class="ytick"><text text-anchor="end" x="77.49113444152813" y="3.8499999999999996" style="font-family: sans-serif; font-size: 11px; fill: rgb(0, 0, 0); fill-opacity: 1; white-space: pre; opacity: 1;" transform="translate(0,111.93330708661415)">2.00×10⁶</text></g><g class="ytick"><text text-anchor="end" x="77.49113444152813" y="3.8499999999999996" style="font-family: sans-serif; font-size: 11px; fill: rgb(0, 0, 0); fill-opacity: 1; white-space: pre; opacity: 1;" transform="translate(0,49.813307086614145)">2.50×10⁶</text></g></g><g class="overaxes-above"/></g></g><g class="polarlayer"/><g class="ternarylayer"/><g class="geolayer"/><g class="funnelarealayer"/><g class="pielayer"/><g class="iciclelayer"/><g class="treemaplayer"/><g class="sunburstlayer"/><g class="glimages"/><defs id="topdefs-cc562a"><g class="clips"/><clipPath id="legendcc562a"><rect width="53" height="116" x="0" y="0"/></clipPath></defs><g class="layer-above"><g class="imagelayer"/><g class="shapelayer"/></g><g class="infolayer"><g class="legend" pointer-events="all" transform="translate(546.72,20)"><rect class="bg" shape-rendering="crispEdges" width="53" height="116" x="0" y="0" style="stroke: rgb(68, 68, 68); stroke-opacity: 1; fill: rgb(255, 255, 255); fill-opacity: 1; stroke-width: 0px;"/><g class="scrollbox" transform="" clip-path="url(#legendcc562a)"><g class="groups" transform=""><g class="traces" transform="translate(0,14.5)" style="opacity: 1;"><text class="legendtext" text-anchor="start" x="40" y="4.680000000000001" style="font-family: 'Open Sans', verdana, arial, sans-serif; font-size: 12px; fill: rgb(68, 68, 68); fill-opacity: 1; white-space: pre;">1</text><g class="layers" style="opacity: 1;"><g class="legendfill"/><g class="legendlines"><path class="js-line" d="M5,0h30" style="fill: none; stroke: rgb(0, 154, 250); stroke-opacity: 1; stroke-width: 1px;"/></g><g class="legendsymbols"><g class="legendpoints"/></g></g><rect class="legendtoggle" x="0" y="-9.5" width="47.630208015441895" height="19" style="fill: rgb(0, 0, 0); fill-opacity: 0;"/></g></g><g class="groups" transform="translate(0,10)"><g class="traces" transform="translate(0,33.5)" style="opacity: 1;"><text class="legendtext" text-anchor="start" x="40" y="4.680000000000001" style="font-family: 'Open Sans', verdana, arial, sans-serif; font-size: 12px; fill: rgb(68, 68, 68); fill-opacity: 1; white-space: pre;">2</text><g class="layers" style="opacity: 1;"><g class="legendfill"/><g class="legendlines"><path class="js-line" d="M5,0h30" style="fill: none; stroke: rgb(227, 111, 71); stroke-opacity: 1; stroke-width: 1px;"/></g><g class="legendsymbols"><g class="legendpoints"/></g></g><rect class="legendtoggle" x="0" y="-9.5" width="47.630208015441895" height="19" style="fill: rgb(0, 0, 0); fill-opacity: 0;"/></g></g><g class="groups" transform="translate(0,20)"><g class="traces" transform="translate(0,52.5)" style="opacity: 1;"><text class="legendtext" text-anchor="start" x="40" y="4.680000000000001" style="font-family: 'Open Sans', verdana, arial, sans-serif; font-size: 12px; fill: rgb(68, 68, 68); fill-opacity: 1; white-space: pre;">3</text><g class="layers" style="opacity: 1;"><g class="legendfill"/><g class="legendlines"><path class="js-line" d="M5,0h30" style="fill: none; stroke: rgb(62, 164, 78); stroke-opacity: 1; stroke-width: 1px;"/></g><g class="legendsymbols"><g class="legendpoints"/></g></g><rect class="legendtoggle" x="0" y="-9.5" width="47.630208015441895" height="19" style="fill: rgb(0, 0, 0); fill-opacity: 0;"/></g></g><g class="groups" transform="translate(0,30)"><g class="traces" transform="translate(0,71.5)" style="opacity: 1;"><text class="legendtext" text-anchor="start" x="40" y="4.680000000000001" style="font-family: 'Open Sans', verdana, arial, sans-serif; font-size: 12px; fill: rgb(68, 68, 68); fill-opacity: 1; white-space: pre;">4</text><g class="layers" style="opacity: 1;"><g class="legendfill"/><g class="legendlines"><path class="js-line" d="M5,0h30" style="fill: none; stroke: rgb(195, 113, 210); stroke-opacity: 1; stroke-width: 1px;"/></g><g class="legendsymbols"><g class="legendpoints"/></g></g><rect class="legendtoggle" x="0" y="-9.5" width="47.630208015441895" height="19" style="fill: rgb(0, 0, 0); fill-opacity: 0;"/></g></g></g><rect class="scrollbar" rx="20" ry="3" width="0" height="0" x="0" y="0" style="fill: rgb(128, 139, 164); fill-opacity: 1;"/></g><g class="g-gtitle"/><g class="g-xtitle" transform="translate(0,-11.040351131769626)"><text class="xtitle" x="306.587037037037" y="407.70669291338584" text-anchor="middle" style="font-family: sans-serif; font-size: 15px; fill: rgb(0, 0, 0); opacity: 1; font-weight: normal; white-space: pre;">year</text></g><g class="g-ytitle" transform="translate(-12.270181655883789,0)"><text class="ytitle" transform="rotate(-90,40.691134441528135,196.875)" x="40.691134441528135" y="196.875" text-anchor="middle" style="font-family: sans-serif; font-size: 15px; fill: rgb(0, 0, 0); opacity: 1; font-weight: normal; white-space: pre;">emisssions</text></g><g class="annotation" data-index="0" style="opacity: 1;"><g class="annotation-text-g" transform="rotate(0,306.5870370370371,33.50000000000001)"><g class="cursor-pointer" transform="translate(217,20)"><rect class="bg" x="0.5" y="0.5" width="179" height="26" style="stroke-width: 1px; stroke: rgb(0, 0, 0); stroke-opacity: 0; fill: rgb(0, 0, 0); fill-opacity: 0;"/><text class="annotation-text" text-anchor="middle" x="89.818359375" y="20.3330078125" style="font-family: sans-serif; font-size: 20px; fill: rgb(0, 0, 0); fill-opacity: 1; white-space: pre;">Regional Emissions</text></g></g></g></g></svg>